<svg width="26" height="26" viewBox="0 0 26 26" fill="none" xmlns="http://www.w3.org/2000/svg">
<path d="M13.9191 4.33331H12.0807C11.0654 4.33331 10.2423 5.10935 10.2423 6.06665C10.2423 7.16212 9.07022 7.8586 8.10806 7.33484L8.01033 7.28164C7.13104 6.80299 6.0067 7.08704 5.49905 7.91608L4.57985 9.4172C4.07219 10.2462 4.37346 11.3063 5.25275 11.785C6.21537 12.309 6.21536 13.691 5.25275 14.215C4.37346 14.6936 4.07219 15.7537 4.57985 16.5828L5.49904 18.0839C6.0067 18.9129 7.13104 19.197 8.01033 18.7183L8.10806 18.6651C9.07022 18.1414 10.2423 18.8378 10.2423 19.9333C10.2423 20.8906 11.0654 21.6666 12.0807 21.6666H13.9191C14.9344 21.6666 15.7575 20.8906 15.7575 19.9333C15.7575 18.8378 16.9296 18.1414 17.8918 18.6651L17.9895 18.7183C18.8688 19.197 19.9931 18.9129 20.5008 18.0839L21.42 16.5828C21.9276 15.7537 21.6264 14.6936 20.7471 14.215C19.7845 13.691 19.7845 12.309 20.7471 11.785C21.6264 11.3063 21.9276 10.2462 21.42 9.41721L20.5008 7.9161C19.9931 7.08706 18.8688 6.80301 17.9895 7.28165L17.8918 7.33485C16.9296 7.85861 15.7575 7.16213 15.7575 6.06665C15.7575 5.10935 14.9344 4.33331 13.9191 4.33331Z" stroke="#797C7B" stroke-opacity="0.39" stroke-width="1.5" stroke-linejoin="round"/>
<circle cx="13" cy="13" r="3.25" stroke="#797C7B" stroke-opacity="0.39" stroke-width="1.5"/>
</svg>
